<svg width="48" height="48" viewBox="0 0 48 48" xmlns="http://www.w3.org/2000/svg">
  <!-- Background circle -->
  <circle cx="24" cy="24" r="22" fill="#6B7280" stroke="#374151" stroke-width="2"/>

  <!-- AI Brain outline -->
  <path d="M16 20 Q12 16, 16 12 Q20 10, 24 12 Q28 10, 32 12 Q36 16, 32 20 Q34 24, 32 28 Q28 32, 24 30 Q20 32, 16 28 Q14 24, 16 20 Z"
        fill="none"
        stroke="#FFFFFF"
        stroke-width="2.5"/>

  <!-- Circuit nodes inside brain -->
  <circle cx="20" cy="18" r="2" fill="#FFFFFF"/>
  <circle cx="28" cy="18" r="2" fill="#FFFFFF"/>
  <circle cx="24" cy="25" r="2" fill="#FFFFFF"/>

  <!-- Connections between nodes -->
  <g stroke="#FFFFFF" stroke-width="1.5">
    <line x1="20" y1="18" x2="24" y2="25"/>
    <line x1="28" y1="18" x2="24" y2="25"/>
    <line x1="20" y1="18" x2="28" y2="18"/>
  </g>

  <!-- AI text -->
  <text x="24" y="40" font-family="Arial, sans-serif" font-size="8" font-weight="bold" text-anchor="middle" fill="#FFFFFF">AI</text>
</svg>